<svg id="visual" viewBox="0 0 900 600" width="900" height="600" xmlns="http://www.w3.org/2000/svg" xmlns:xlink="http://www.w3.org/1999/xlink" version="1.1"><g stroke-width="1" stroke-linejoin="bevel"><path d="M475 260L483 179L377 203Z" fill="#587a98" stroke="#587a98"></path><path d="M377 203L390 282L475 260Z" fill="#091b32" stroke="#091b32"></path><path d="M389 78L305 190L377 203Z" fill="#92c4e1" stroke="#92c4e1"></path><path d="M377 203L289 261L390 282Z" fill="#3d5874" stroke="#3d5874"></path><path d="M483 179L389 78L377 203Z" fill="#3d5874" stroke="#3d5874"></path><path d="M483 179L492 74L389 78Z" fill="#3d5874" stroke="#3d5874"></path><path d="M305 190L289 261L377 203Z" fill="#92c4e1" stroke="#92c4e1"></path><path d="M493 398L595 268L475 260Z" fill="#92c4e1" stroke="#92c4e1"></path><path d="M475 260L606 236L483 179Z" fill="#4a6986" stroke="#4a6986"></path><path d="M483 179L592 98L492 74Z" fill="#233852" stroke="#233852"></path><path d="M595 268L606 236L475 260Z" fill="#2f4863" stroke="#2f4863"></path><path d="M389 78L264 131L305 190Z" fill="#3d5874" stroke="#3d5874"></path><path d="M217 174L236 272L289 261Z" fill="#162942" stroke="#162942"></path><path d="M430 422L493 398L390 282Z" fill="#091b32" stroke="#091b32"></path><path d="M390 282L493 398L475 260Z" fill="#587a98" stroke="#587a98"></path><path d="M606 236L592 98L483 179Z" fill="#091b32" stroke="#091b32"></path><path d="M281 435L430 422L390 282Z" fill="#587a98" stroke="#587a98"></path><path d="M217 174L289 261L305 190Z" fill="#668caa" stroke="#668caa"></path><path d="M289 261L281 435L390 282Z" fill="#091b32" stroke="#091b32"></path><path d="M492 74L402 0L389 78Z" fill="#4a6986" stroke="#4a6986"></path><path d="M389 78L282 0L264 131Z" fill="#4a6986" stroke="#4a6986"></path><path d="M499 0L402 0L492 74Z" fill="#587a98" stroke="#587a98"></path><path d="M160 101L217 174L264 131Z" fill="#587a98" stroke="#587a98"></path><path d="M264 131L217 174L305 190Z" fill="#233852" stroke="#233852"></path><path d="M597 0L499 0L492 74Z" fill="#668caa" stroke="#668caa"></path><path d="M493 398L609 383L595 268Z" fill="#162942" stroke="#162942"></path><path d="M595 268L680 223L606 236Z" fill="#233852" stroke="#233852"></path><path d="M503 523L609 383L493 398Z" fill="#668caa" stroke="#668caa"></path><path d="M670 336L680 223L595 268Z" fill="#091b32" stroke="#091b32"></path><path d="M606 236L680 223L592 98Z" fill="#587a98" stroke="#587a98"></path><path d="M609 383L670 336L595 268Z" fill="#587a98" stroke="#587a98"></path><path d="M402 0L282 0L389 78Z" fill="#4a6986" stroke="#4a6986"></path><path d="M236 272L281 435L289 261Z" fill="#587a98" stroke="#587a98"></path><path d="M679 67L597 0L592 98Z" fill="#162942" stroke="#162942"></path><path d="M592 98L597 0L492 74Z" fill="#4a6986" stroke="#4a6986"></path><path d="M680 223L679 67L592 98Z" fill="#749ebc" stroke="#749ebc"></path><path d="M281 435L368 498L430 422Z" fill="#83b1ce" stroke="#83b1ce"></path><path d="M430 422L503 523L493 398Z" fill="#233852" stroke="#233852"></path><path d="M282 0L232 0L264 131Z" fill="#83b1ce" stroke="#83b1ce"></path><path d="M232 0L160 101L264 131Z" fill="#3d5874" stroke="#3d5874"></path><path d="M217 174L109 225L236 272Z" fill="#587a98" stroke="#587a98"></path><path d="M236 272L199 431L281 435Z" fill="#749ebc" stroke="#749ebc"></path><path d="M368 498L503 523L430 422Z" fill="#2f4863" stroke="#2f4863"></path><path d="M609 383L733 393L670 336Z" fill="#587a98" stroke="#587a98"></path><path d="M281 435L314 531L368 498Z" fill="#92c4e1" stroke="#92c4e1"></path><path d="M75 310L199 431L236 272Z" fill="#4a6986" stroke="#4a6986"></path><path d="M160 101L109 225L217 174Z" fill="#091b32" stroke="#091b32"></path><path d="M184 537L314 531L281 435Z" fill="#091b32" stroke="#091b32"></path><path d="M396 600L471 600L503 523Z" fill="#2f4863" stroke="#2f4863"></path><path d="M689 478L733 393L609 383Z" fill="#83b1ce" stroke="#83b1ce"></path><path d="M670 336L768 377L680 223Z" fill="#749ebc" stroke="#749ebc"></path><path d="M796 131L721 0L679 67Z" fill="#92c4e1" stroke="#92c4e1"></path><path d="M232 0L103 86L160 101Z" fill="#233852" stroke="#233852"></path><path d="M160 101L103 86L109 225Z" fill="#587a98" stroke="#587a98"></path><path d="M796 131L679 67L680 223Z" fill="#4a6986" stroke="#4a6986"></path><path d="M679 67L721 0L597 0Z" fill="#4a6986" stroke="#4a6986"></path><path d="M503 523L639 511L609 383Z" fill="#233852" stroke="#233852"></path><path d="M639 511L689 478L609 383Z" fill="#749ebc" stroke="#749ebc"></path><path d="M800 530L768 377L733 393Z" fill="#233852" stroke="#233852"></path><path d="M733 393L768 377L670 336Z" fill="#587a98" stroke="#587a98"></path><path d="M822 164L796 131L680 223Z" fill="#83b1ce" stroke="#83b1ce"></path><path d="M0 167L75 310L109 225Z" fill="#091b32" stroke="#091b32"></path><path d="M109 225L75 310L236 272Z" fill="#587a98" stroke="#587a98"></path><path d="M75 310L129 438L199 431Z" fill="#162942" stroke="#162942"></path><path d="M199 431L184 537L281 435Z" fill="#091b32" stroke="#091b32"></path><path d="M396 600L503 523L368 498Z" fill="#587a98" stroke="#587a98"></path><path d="M503 523L576 600L639 511Z" fill="#162942" stroke="#162942"></path><path d="M314 531L396 600L368 498Z" fill="#091b32" stroke="#091b32"></path><path d="M263 600L396 600L314 531Z" fill="#162942" stroke="#162942"></path><path d="M832 332L822 164L680 223Z" fill="#091b32" stroke="#091b32"></path><path d="M796 131L814 0L721 0Z" fill="#83b1ce" stroke="#83b1ce"></path><path d="M129 438L184 537L199 431Z" fill="#92c4e1" stroke="#92c4e1"></path><path d="M471 600L576 600L503 523Z" fill="#4a6986" stroke="#4a6986"></path><path d="M639 511L666 600L689 478Z" fill="#091b32" stroke="#091b32"></path><path d="M900 306L832 332L900 363Z" fill="#2f4863" stroke="#2f4863"></path><path d="M768 377L832 332L680 223Z" fill="#668caa" stroke="#668caa"></path><path d="M800 530L733 393L689 478Z" fill="#749ebc" stroke="#749ebc"></path><path d="M184 537L263 600L314 531Z" fill="#2f4863" stroke="#2f4863"></path><path d="M232 0L66 0L103 86Z" fill="#83b1ce" stroke="#83b1ce"></path><path d="M103 86L0 167L109 225Z" fill="#83b1ce" stroke="#83b1ce"></path><path d="M900 135L814 0L796 131Z" fill="#83b1ce" stroke="#83b1ce"></path><path d="M900 135L796 131L822 164Z" fill="#92c4e1" stroke="#92c4e1"></path><path d="M129 438L107 505L184 537Z" fill="#92c4e1" stroke="#92c4e1"></path><path d="M184 537L165 600L263 600Z" fill="#233852" stroke="#233852"></path><path d="M0 371L107 505L129 438Z" fill="#3d5874" stroke="#3d5874"></path><path d="M0 118L0 167L103 86Z" fill="#587a98" stroke="#587a98"></path><path d="M75 310L0 371L129 438Z" fill="#83b1ce" stroke="#83b1ce"></path><path d="M66 0L0 118L103 86Z" fill="#668caa" stroke="#668caa"></path><path d="M576 600L666 600L639 511Z" fill="#668caa" stroke="#668caa"></path><path d="M0 167L0 329L75 310Z" fill="#668caa" stroke="#668caa"></path><path d="M0 329L0 371L75 310Z" fill="#2f4863" stroke="#2f4863"></path><path d="M832 332L900 198L822 164Z" fill="#83b1ce" stroke="#83b1ce"></path><path d="M89 600L165 600L107 505Z" fill="#2f4863" stroke="#2f4863"></path><path d="M107 505L165 600L184 537Z" fill="#233852" stroke="#233852"></path><path d="M900 198L900 135L822 164Z" fill="#162942" stroke="#162942"></path><path d="M832 332L900 306L900 198Z" fill="#233852" stroke="#233852"></path><path d="M900 363L832 332L768 377Z" fill="#4a6986" stroke="#4a6986"></path><path d="M666 600L800 530L689 478Z" fill="#668caa" stroke="#668caa"></path><path d="M66 0L0 0L0 118Z" fill="#3d5874" stroke="#3d5874"></path><path d="M900 475L900 363L768 377Z" fill="#668caa" stroke="#668caa"></path><path d="M900 135L900 0L814 0Z" fill="#162942" stroke="#162942"></path><path d="M0 534L89 600L107 505Z" fill="#233852" stroke="#233852"></path><path d="M800 530L900 475L768 377Z" fill="#162942" stroke="#162942"></path><path d="M0 371L0 534L107 505Z" fill="#091b32" stroke="#091b32"></path><path d="M666 600L814 600L800 530Z" fill="#4a6986" stroke="#4a6986"></path><path d="M800 530L900 600L900 475Z" fill="#2f4863" stroke="#2f4863"></path><path d="M0 534L0 600L89 600Z" fill="#83b1ce" stroke="#83b1ce"></path><path d="M814 600L900 600L800 530Z" fill="#668caa" stroke="#668caa"></path></g></svg>